<svg id="Capa_1" enable-background="new 0 0 512 512" height="512" viewBox="0 0 512 512" width="512" xmlns="http://www.w3.org/2000/svg"><g><g><path d="m256.001 308.5c-28.949 0-52.5-23.551-52.5-52.5s23.551-52.5 52.5-52.5 52.5 23.551 52.5 52.5-23.551 52.5-52.5 52.5zm0-90c-20.678 0-37.5 16.822-37.5 37.5s16.822 37.5 37.5 37.5 37.5-16.822 37.5-37.5-16.822-37.5-37.5-37.5z"/></g><path d="m467.638 346.435c-.435-.251-.875-.487-1.318-.712-1.897-26.077-20.544-57.767-51.118-89.723 30.577-31.959 49.225-63.653 51.118-89.732 13.551-6.882 19.517-24.179 11.383-38.268-7.811-13.529-25.8-17.774-38.851-9.274-8.357-4.062-18.467-6.705-30.155-7.86-4.118-.4-7.793 2.604-8.201 6.727-.407 4.122 2.604 7.793 6.727 8.201 8.251.815 15.43 2.458 21.496 4.866-7.326 16.787 4.025 36.426 22.227 38.409-4.237 29.033-26.719 55.776-46.34 76.298-15.551-14.983-33.609-29.892-53.673-44.177-2.34-24.518-6.222-47.612-11.423-68.571 12.786-3.119 25.038-5.305 36.526-6.469 4.121-.417 7.124-4.097 6.706-8.218s-4.1-7.124-8.218-6.706c-12.25 1.241-25.308 3.582-38.917 6.922-12.388-42.465-30.511-74.469-52.148-89.154.839-15.547-11.847-28.994-27.458-28.994-15.613 0-28.299 13.45-27.457 29.002-21.617 14.657-39.774 46.55-52.182 89.108-9.989-2.436-19.716-4.347-29.092-5.684-4.104-.587-7.899 2.265-8.484 6.366s2.265 7.899 6.366 8.484c8.797 1.255 17.927 3.04 27.31 5.315-5.186 20.928-9.065 44.018-11.4 68.607-20.061 14.283-38.117 29.191-53.666 44.172-19.257-20.141-42.121-47.389-46.34-76.299 8.425-.919 16.322-5.685 20.874-13.57 4.344-8.692 4.791-16.979 1.343-24.86 8.184-3.256 18.382-5.072 30.453-5.403 4.141-.113 7.405-3.562 7.292-7.702s-3.543-7.417-7.702-7.292c-16.018.438-29.496 3.29-40.17 8.481-13.052-8.497-31.037-4.255-38.848 9.276-3.673 6.362-4.648 13.772-2.747 20.868 1.87 6.98 7.578 14.074 14.13 17.401 1.894 26.077 20.542 57.771 51.119 89.73-30.573 31.955-49.221 63.646-51.118 89.723-13.555 6.879-19.511 24.2-11.384 38.277 7.817 13.539 25.811 17.767 38.853 9.272 30.74 14.889 71.315 8.389 103.206.602 12.408 42.566 30.567 74.466 52.187 89.124-.842 15.552 11.844 29.002 27.457 29.002 15.611 0 28.296-13.447 27.458-28.996 21.635-14.684 39.756-46.681 52.144-89.138 31.659 7.735 72.489 14.302 103.248-.594 13.041 8.495 31.037 4.267 38.853-9.272 7.589-13.145 2.414-30.361-10.066-37.565zm-24.575-198.435c-3.19-6.955-1.665-12.647 4.575-17.075 5.775-3.333 13.575-1.488 17.076 4.575 3.19 6.955 1.665 12.647-4.576 17.075-5.97 3.446-13.629 1.394-17.075-4.575zm-49.078 108c-12.398 11.908-26.378 23.708-41.524 35.069 1.394-23.349 1.394-46.79 0-70.138 15.147 11.361 29.126 23.161 41.524 35.069zm-59.382-66.001c-19.527-12.883-39.831-24.606-60.749-35.08 17.45-7.454 34.646-13.649 51.138-18.421 4.114 16.694 7.344 34.702 9.611 53.501zm-78.602-174.999c6.893 0 12.5 5.607 12.5 12.5s-5.607 12.5-12.5 12.5-12.5-5.607-12.5-12.5 5.608-12.5 12.5-12.5zm-60.775 93.353c10.486-30.544 23.999-53.08 38.586-64.634 5.008 6.833 13.087 11.281 22.189 11.281 9.105 0 17.187-4.452 22.195-11.289 23.029 18.198 34.948 51.051 42.91 78.316-20.929 6.044-42.9 14.27-65.059 24.371-22.207-10.154-44.153-18.381-65.143-24.419 1.366-4.655 2.804-9.205 4.322-13.626zm-8.229 28.1c16.559 4.772 33.763 10.964 51.247 18.451-20.975 10.47-41.319 22.21-60.885 35.122 2.259-18.86 5.485-36.834 9.638-53.573zm-20.974 110.704c.071.002.142.003.212.003 4.045 0 7.38-3.222 7.493-7.292.287-10.302.857-20.434 1.672-30.375 25.524-17.711 52.541-33.311 80.639-46.566 28.052 13.272 55.044 28.86 80.542 46.551 2.573 30.936 2.573 62.106 0 93.043-25.506 17.696-52.501 33.282-80.579 46.523-28.087-13.244-55.089-28.835-80.601-46.538-.815-9.941-1.385-20.073-1.672-30.375-.115-4.141-3.555-7.39-7.706-7.289-4.141.115-7.404 3.565-7.289 7.706.174 6.245.447 12.421.81 18.523-15.147-11.362-29.127-23.162-41.527-35.071 12.399-11.909 26.379-23.709 41.527-35.071-.363 6.102-.636 12.278-.81 18.523-.115 4.14 3.148 7.59 7.289 7.705zm168.58 74.844c-2.267 18.797-5.496 36.803-9.61 53.495-16.514-4.783-33.724-10.99-51.138-18.427 20.92-10.468 41.222-22.185 60.748-35.068zm-96.455 35.068c-17.423 7.44-34.641 13.649-51.162 18.433-4.148-16.726-7.37-34.685-9.627-53.528 19.538 12.894 39.854 24.62 60.789 35.095zm-190.859-221.569c3.5-6.062 11.301-7.909 17.076-4.575 6.241 4.428 7.766 10.12 4.575 17.075-3.446 5.969-11.105 8.021-17.075 4.575-6.241-4.428-7.766-10.12-4.576-17.075zm0 241c-2.909-4.91-1.665-12.647 4.576-17.075 6.319-3.27 13.808-1.832 17.075 4.575 3.187 6.25.937 13-4.575 17.075-5.989 4.428-14.114.425-17.076-4.575zm117.136 4.737c-34.408 7.445-62.759 7.434-81.151.121 3.447-7.881 2.999-16.167-1.344-24.858-4.553-7.885-12.448-12.658-20.873-13.577 4.24-29.031 26.719-55.771 46.339-76.292 15.549 14.981 33.605 29.888 53.666 44.172 2.335 24.579 6.212 47.661 11.394 68.582-2.701.66-5.38 1.278-8.031 1.852zm91.576 115.763c-6.893 0-12.5-5.607-12.5-12.5s5.607-12.5 12.5-12.5 12.5 5.607 12.5 12.5-5.607 12.5-12.5 12.5zm62.67-99.065c-10.759 33.53-24.945 58.083-40.475 70.355-5.008-6.838-13.089-11.29-22.195-11.29-9.102 0-17.181 4.448-22.189 11.281-22.997-18.214-34.93-51.066-42.914-78.281 20.754-5.975 42.696-14.158 65.102-24.392 22.405 10.234 44.345 18.418 65.098 24.393-.784 2.687-1.593 5.334-2.427 7.934zm28.906-16.698c-2.662-.576-5.353-1.198-8.066-1.86 5.2-20.959 9.083-44.052 11.422-68.569 20.064-14.285 38.122-29.194 53.673-44.177 19.256 20.14 42.117 47.384 46.339 76.292-17.912 1.952-29.743 21.294-22.218 38.435-18.391 7.312-46.742 7.324-81.15-.121zm117.137-4.737c-4.428 6.241-10.12 7.766-17.076 4.575-6.241-4.428-7.766-10.12-4.575-17.075 5.064-6.32 10.756-7.845 17.075-4.575 6.24 4.428 7.766 10.12 4.576 17.075z"/></g></svg>