<svg id="Capa_1" enable-background="new 0 0 512 512" height="512" viewBox="0 0 512 512" width="512" xmlns="http://www.w3.org/2000/svg"><g><path d="m244.758 287.001h-60v45h60zm-15 30h-30v-15h30z"/><path d="m319.757 227.002h-60v45h60zm-15 30h-30v-15h30z"/><path d="m319.757 287.001h-60v45h60zm-15 30h-30v-15h30z"/><path d="m259.757 452h60v-105h-60zm15-89.999h30v75h-30z"/><path d="m244.758 347.001h-60v45h60zm-15 30h-30v-15h30z"/><path d="m184.758 452h60v-45h-60zm15-30h30v15h-30z"/><path d="m169.759 227.002h-60v45h60zm-15 30h-30v-15h30z"/><path d="m34.759 452h60v-45h-60zm15-30h30v15h-30z"/><path d="m94.759 227.002h-60v45h60zm-15 30h-30v-15h30z"/><path d="m94.759 287.001h-60v45h60zm-15 30h-30v-15h30z"/><path d="m244.758 227.002h-60v45h60zm-15 30h-30v-15h30z"/><path d="m94.759 347.001h-60v45h60zm-15 30h-30v-15h30z"/><path d="m109.759 452h60v-45h-60zm15-30h30v15h-30z"/><path d="m169.759 347.001h-60v45h60zm-15 30h-30v-15h30z"/><path d="m169.759 287.001h-60v45h60zm-15 30h-30v-15h30z"/><path d="m94.758 97.5h15v30h-15z"/><path d="m154.758 97.5h15v30h-15z"/><path d="m124.758 97.5h15v30h-15z"/><path d="m477.241 75h-15.007v-15h-15v15h-14.979v15h14.979v14.999h15v-14.999h15.007z"/><path d="m432.242 134.998h44.999v15h-44.999z"/><path d="m432.244 254.994h45v15h-45z" transform="matrix(.707 -.707 .707 .707 -52.42 398.435)"/><path d="m465.35 181.282-10.612 10.612-10.606-10.607-10.608 10.607 10.608 10.606-10.592 10.592 10.607 10.606 10.591-10.591 10.607 10.606 10.606-10.607-10.606-10.606 10.612-10.612z"/><path d="m327.257 0h-299.998c-12.406 0-22.499 10.094-22.499 22.5v467c0 12.406 10.093 22.5 22.499 22.5h299.998c12.406 0 22.499-10.094 22.499-22.5v-37.5h-15v37.5c0 4.136-3.364 7.5-7.499 7.5h-299.998c-4.135 0-7.499-3.364-7.499-7.5v-287.001h314.996v234.501h15v-414.5c0-12.406-10.093-22.5-22.499-22.5zm7.499 187.499h-314.996v-164.999c0-4.136 3.364-7.5 7.499-7.5h299.998c4.135 0 7.499 3.364 7.499 7.5z"/><path d="m184.758 75h119.999v74.999h-254.998v-74.999h119.999v-15h-134.999v104.999h284.998v-104.999h-134.999z"/><path d="m507.24 240v-217.5c0-12.407-10.093-22.5-22.499-22.5h-59.986c-12.406 0-22.499 10.093-22.499 22.5v55.073l-34.927 34.927 34.927 34.926v145.074c0 12.406 10.093 22.5 22.499 22.5h59.986c12.406 0 22.499-10.094 22.499-22.5v-37.5h-15v37.5c0 4.136-3.364 7.5-7.499 7.5h-59.986c-4.135 0-7.499-3.364-7.499-7.5v-151.287l-28.714-28.713 28.714-28.713v-61.287c0-4.136 3.364-7.5 7.499-7.5h59.986c4.135 0 7.499 3.364 7.499 7.5v217.5z"/><path d="m274.756 30h15v15h-15z"/><path d="m274.757 89.999h15v15h-15z"/><path d="m304.756 30h15.001v15h-15.001z"/><path d="m462.241 30h15v15h-15z"/></g></svg>